<svg width="120" height="120" viewBox="0 0 120 120" fill="none" xmlns="http://www.w3.org/2000/svg">
  <rect x="0" y="0" width="120" height="120" rx="27" fill="url(#gradient)"/>
  <defs>
    <linearGradient id="gradient" x1="0%" y1="0%" x2="100%" y2="100%">
      <stop offset="0%" stop-color="#10B981"/>
      <stop offset="100%" stop-color="#059669"/>
    </linearGradient>
  </defs>
  <circle cx="60" cy="60" r="42" stroke="white" stroke-width="1.5" opacity="0.2"/>
  <g transform="translate(60, 60)">
    <rect x="-28" y="16" width="56" height="6" fill="white" opacity="0.6" rx="2"/>
    <rect x="-24" y="8" width="48" height="6" fill="white" opacity="0.7" rx="2"/>
    <rect x="-20" y="0" width="40" height="6" fill="white" opacity="0.85" rx="2"/>
    <rect x="-16" y="-8" width="32" height="6" fill="white" opacity="0.95" rx="2"/>
    <rect x="-12" y="-16" width="10" height="6" fill="white" rx="2"/>
    <path d="M -1 -16 L 0 -24 L 1 -16 Z" fill="#FACC15"/>
    <rect x="2" y="-16" width="10" height="6" fill="white" rx="2"/>
  </g>
  <path d="M 60 36 L 60 32 M 56 34 L 60 32 L 64 34" stroke="#FACC15" stroke-width="3" stroke-linecap="round" stroke-linejoin="round" fill="none"/>
</svg>